<?xml version="1.0" encoding="utf-8"?>
<?xml-stylesheet type="text/xsl" href="rss1.xsl"?>
<rss version="2.0" xmlns:atom="http://www.w3.org/2005/Atom" xmlns:content="http://purl.org/rss/1.0/modules/content/" xmlns:dc="http://purl.org/dc/elements/1.1/" xmlns:media="http://search.yahoo.com/mrss/">
<channel>
 <title>Getty</title>
 <link>http://www.gettyimg.com/</link>
 <atom:link href="http://www.gettyimg.com/" rel="self" type="application/rss+xml" />

 
                <item>
                <title><![CDATA[【Albums (lossless)】ALAC - Iwan Fals - Sore Tugu Pancoran (1985) [ALAC, 24bit/44.1kHz, 2.1Mbps]]]></title>
                <link><![CDATA[https://sharemania.us/threads/iwan-fals-sore-tugu-pancoran-1985-alac-24bit-44-1khz-2-1mbps.242444/]]></link>
                <description><![CDATA[<article>
<blockquote class="messageText SelectQuoteContainer ugc baseHtml">
<img src="https://is1-ssl.mzstatic.com/image/thumb/Music/v4/a3/48/f3/a348f3a6-ea45-140d-a5b4-a4a52567376c/Iwan_Fals_-_Sore_Tugu_Pancoran.jpg/1200x1200bf-60.jpg" class="bbCodeImage LbImage" alt="[​IMG]" data-url="https://is1-ssl.mzstatic.com/image/thumb/Music/v4/a3/48/f3/a348f3a6-ea45-140d-a5b4-a4a52567376c/Iwan_Fals_-_Sore_Tugu_Pancoran.jpg/1200x1200bf-60.jpg" style=""><br>
<br>
<span style="font-size: 18px"><b>Artist: Iwan Fals<br>
Album: Sore Tugu Pancoran</b><br>
Countries: Indonesia<br>
Years: 1985<br>
Source: Apple Music<br>
Format: Apple Lossless Audio Codec w/ Core Media Audio<br>
.m4a [ALAC, 24bit/44.1kHz, 2.1Mbps]<br>
</span><br>
<br>
<span style="color: #ff0000"><b>Tracklist:</b><br>
</span><br>
<i>1. Sore Tugu Pancoran<br>
2. Aku Antarkan<br>
3. Ujung Aspal Pondok Gede<br>
4. Tince Sukarti<br>
5. Yang Tersendiri<br>
6. Berapa<br>
7. Damai Kami Sepanjang Hari<br>
8. Intermezo<br>
</i><br>
<br>
Link Download:<br>
<br>
<div class="bbCodeBlock bbCodeVfcHH HiddenContent">
<div class="attribution type">Hidden Content:</div>
<blockquote>You must either reply or click 'Like' to see the hidden information contained here.</blockquote>
</div>
<div class="messageTextEndMarker">&nbsp;</div>
</blockquote>
</article>]]></description>
                <author><![CDATA[andammm777]]></author>
                </item>

                
                <item>
                <title><![CDATA[【Apple Music】WEB-RiP - Calvin Harris &amp; Rag'n'Bone Man - Lovers In A Past Life [Apple HD Music Video]]]></title>
                <link><![CDATA[https://sharemania.us/threads/calvin-harris-ragnbone-man-lovers-in-a-past-life-apple-hd-music-video.242445/]]></link>
                <description><![CDATA[<article>
<blockquote class="messageText SelectQuoteContainer ugc baseHtml">
<span style="font-size: 22px"><b>Calvin Harris &amp; Rag'n'Bone Man - Lovers In A Past Life [Apple HD Music Video]</b></span><br>
<br>
<img src="https://imgur.com/QUucVmW.jpg" class="bbCodeImage LbImage" alt="[​IMG]" data-url="https://imgur.com/QUucVmW.jpg" style=""><br>
<br>
<div class="bbCodeBlock bbCodeCode">
<div class="type">Code:</div>
<pre>General
Format                         : MPEG-4
Codec ID                       : M4V  (isom/iso4/M4V /mp42)
File size                      : 210 MiB
Duration                       : 2 min 49 s
Overall bit rate mode          : Variable
Overall bit rate               : 10.4 Mb/s
Movie name                     : Lovers In A Past Life
Performer                      : Calvin Harris &amp; Rag'n'Bone Man
Genre                          : Dance
ContentType                    : Music Video
Recorded date                  : UTC 2024-02-25 08:00:00
Encoded date                   : UTC 2024-03-15 00:55:25
Tagged date                    : UTC 2024-03-15 00:55:25
Copyright                      : ℗ (C) 2024 Sony Music Entertainment UK Limited
Cover                          : Yes
Rating                         : None
GenreID                        : 1617
AppleStoreCountry              : Canada
AlbumTitleID                   : 201955086
AppleStoreCatalogID            : 1732259632

Video
ID                             : 2
Format                         : AVC
Format/Info                    : Advanced Video Codec
Format profile                 : High@L4
Format settings                : CABAC / 5 Ref Frames
Format settings, CABAC         : Yes
Format settings, Reference fra : 5 frames
Codec ID                       : avc1
Codec ID/Info                  : Advanced Video Coding
Duration                       : 2 min 49 s
Bit rate                       : 10.1 Mb/s
Maximum bit rate               : 25.1 Mb/s
Width                          : 1 918 pixels
Height                         : 864 pixels
Display aspect ratio           : 2.220
Frame rate mode                : Constant
Frame rate                     : 25.000 FPS
Color space                    : YUV
Chroma subsampling             : 4:2:0
Bit depth                      : 8 bits
Scan type                      : Progressive
Bits/(Pixel*Frame)             : 0.245
Stream size                    : 205 MiB (97%)
Title                          : Core Media Video
Encoded date                   : UTC 2024-02-21 15:51:29
Tagged date                    : UTC 2024-03-15 00:55:30
Color range                    : Limited
Color primaries                : BT.709
Transfer characteristics       : BT.709
Matrix coefficients            : BT.709
Codec configuration box        : avcC

Audio
ID                             : 1
Format                         : AAC LC
Format/Info                    : Advanced Audio Codec Low Complexity
Codec ID                       : mp4a-40-2
Duration                       : 2 min 49 s
Duration_LastFrame             : -15 ms
Bit rate mode                  : Variable
Bit rate                       : 265 kb/s
Maximum bit rate               : 347 kb/s
Channel(s)                     : 2 channels
Channel layout                 : L R
Sampling rate                  : 48.0 kHz
Frame rate                     : 46.875 FPS (1024 SPF)
Compression mode               : Lossy
Stream size                    : 5.33 MiB (3%)
Title                          : Core Media Audio
Encoded date                   : UTC 2024-02-21 15:44:44
Tagged date                    : UTC 2024-03-15 00:55:30
</pre>
</div>
<div class="bbCodeBlock bbCodeVfcHH HiddenContent">
<div class="attribution type">Hidden Content:</div>
<blockquote>You must reply before you can see the hidden data contained here.</blockquote>
</div>
<div class="messageTextEndMarker">&nbsp;</div>
</blockquote>
</article>]]></description>
                <author><![CDATA[abby0511]]></author>
                </item>

                
                <item>
                <title><![CDATA[【Requests】[REQ VID] - Taylor Swift - The Man (Master ProRes 1080p)]]></title>
                <link><![CDATA[https://sharemania.us/threads/taylor-swift-the-man-master-prores-1080p.242443/]]></link>
                <description><![CDATA[<article>
<blockquote class="messageText SelectQuoteContainer ugc baseHtml">
<div style="text-align: center"><span style="font-family: 'Courier New'"><span style="font-size: 15px"><b>Does anyone have the clip "The Man" by Taylor Swift in <span style="color: #ff0000">Master ProRes</span> quality with a valid link?</b><br>
<br>
<b>If possible, upload to <span style="color: #0059b3">Google Drive</span>, <span style="color: #0059b3">OneDrive</span>, <span style="color: #0059b3">Mediafire</span>, etc.</b><br>
<b><span style="color: #ff0000">Thank you very much</span>!</b><br>
<br>
<b><img src="https://proresmusicvideo.com/wp-content/uploads/2021/08/Taylor-Swift-The-Man-Master-Clean-ProRes-1080p-2019.mov.png" class="bbCodeImage LbImage" alt="[​IMG]" data-url="https://proresmusicvideo.com/wp-content/uploads/2021/08/Taylor-Swift-The-Man-Master-Clean-ProRes-1080p-2019.mov.png" style=""> </b></span></span>​</div>
<div class="messageTextEndMarker">&nbsp;</div>
</blockquote>
</article>]]></description>
                <author><![CDATA[brenoallex]]></author>
                </item>

                </channel></rss>